<svg width="20" height="21" viewBox="0 0 20 21" fill="none" xmlns="http://www.w3.org/2000/svg">
<path d="M10.0013 2.16602C7.81797 2.16602 6.04297 3.94102 6.04297 6.12435C6.04297 8.26602 7.71797 9.99935 9.9013 10.0743C9.96797 10.066 10.0346 10.066 10.0846 10.0743C10.1013 10.0743 10.1096 10.0743 10.1263 10.0743C10.1346 10.0743 10.1346 10.0743 10.143 10.0743C12.2763 9.99935 13.9513 8.26602 13.9596 6.12435C13.9596 3.94102 12.1846 2.16602 10.0013 2.16602Z" fill="#062983"/>
<path d="M14.2328 12.2914C11.9078 10.7414 8.11615 10.7414 5.77448 12.2914C4.71615 12.9997 4.13281 13.9581 4.13281 14.9831C4.13281 16.0081 4.71615 16.9581 5.76615 17.6581C6.93281 18.4414 8.46615 18.8331 9.99948 18.8331C11.5328 18.8331 13.0661 18.4414 14.2328 17.6581C15.2828 16.9497 15.8661 15.9997 15.8661 14.9664C15.8578 13.9414 15.2828 12.9914 14.2328 12.2914Z" fill="#062983"/>
</svg>
