<svg width="520" height="287" viewBox="0 0 520 287" fill="none" xmlns="http://www.w3.org/2000/svg">
<path d="M4.68262 16H3.45215V7.24316H0.341797V6.13574H7.79297V7.24316H4.68262V16ZM10.0078 16.123C8.03906 16.123 6.71289 14.708 6.71289 12.4453C6.71289 10.1758 8.03906 8.76758 10.0078 8.76758C11.9697 8.76758 13.2959 10.1758 13.2959 12.4453C13.2959 14.708 11.9697 16.123 10.0078 16.123ZM10.0078 15.0771C11.2656 15.0771 12.0859 14.1201 12.0859 12.4453C12.0859 10.7705 11.2656 9.81348 10.0078 9.81348C8.75 9.81348 7.92285 10.7705 7.92285 12.4453C7.92285 14.1201 8.75 15.0771 10.0078 15.0771ZM14.8818 7.1748H16.0713V8.89062H17.4521V9.86816H16.0713V14.0928C16.0713 14.7422 16.3447 15.0361 16.9531 15.0361C17.0898 15.0361 17.3633 15.0156 17.4453 15.002V16C17.3018 16.0342 16.9736 16.0547 16.6934 16.0547C15.3877 16.0547 14.8818 15.5215 14.8818 14.1543V9.86816H13.8223V8.89062H14.8818V7.1748ZM20.9316 15.1113C22.0527 15.1113 22.9141 14.3252 22.9141 13.2998V12.7188L21.0137 12.835C20.0566 12.8965 19.5098 13.3203 19.5098 13.9902C19.5098 14.667 20.0771 15.1113 20.9316 15.1113ZM20.665 16.123C19.25 16.123 18.2998 15.2686 18.2998 13.9902C18.2998 12.7734 19.2363 12.0078 20.877 11.9121L22.9141 11.7959V11.2012C22.9141 10.333 22.3398 9.81348 21.3555 9.81348C20.4395 9.81348 19.8652 10.2441 19.7148 10.9414H18.5664C18.6484 9.71094 19.7012 8.76758 21.3828 8.76758C23.0508 8.76758 24.1035 9.66992 24.1035 11.085V16H22.9756V14.7764H22.9482C22.5244 15.5898 21.6221 16.123 20.665 16.123ZM25.6758 16V6.13574H26.8652V16H25.6758ZM35.5879 16.1641C32.8672 16.1641 31.1445 14.1885 31.1445 11.0645C31.1445 7.96777 32.8877 5.97168 35.5879 5.97168C37.7344 5.97168 39.3682 7.27734 39.6826 9.24609H38.4385C38.124 7.9541 36.9961 7.10645 35.5879 7.10645C33.6602 7.10645 32.4092 8.66504 32.4092 11.0645C32.4092 13.4844 33.6465 15.0293 35.5947 15.0293C37.0439 15.0293 38.083 14.332 38.4385 13.1289H39.6826C39.2314 15.0771 37.7686 16.1641 35.5879 16.1641ZM40.9541 16V8.89062H42.0752V10.0527H42.1025C42.335 9.2666 42.9912 8.76758 43.8252 8.76758C44.0303 8.76758 44.208 8.80176 44.3037 8.81543V9.9707C44.208 9.93652 43.9551 9.90234 43.668 9.90234C42.7451 9.90234 42.1436 10.5654 42.1436 11.5703V16H40.9541ZM47.7832 9.7998C46.6689 9.7998 45.8896 10.6543 45.8145 11.8369H49.6768C49.6494 10.6475 48.9043 9.7998 47.7832 9.7998ZM49.6494 13.9629H50.8184C50.6133 15.207 49.4102 16.123 47.8584 16.123C45.8213 16.123 44.584 14.708 44.584 12.4727C44.584 10.2646 45.8418 8.76758 47.8037 8.76758C49.7246 8.76758 50.9072 10.1621 50.9072 12.3154V12.7666H45.8076V12.835C45.8076 14.1953 46.6074 15.0908 47.8857 15.0908C48.7881 15.0908 49.4512 14.6328 49.6494 13.9629ZM54.8037 16.123C52.9922 16.123 51.7617 14.6738 51.7617 12.4453C51.7617 10.2168 52.9854 8.76758 54.7764 8.76758C55.7949 8.76758 56.6152 9.2666 57.0391 10.0459H57.0664V6.13574H58.2559V16H57.1211V14.7969H57.1006C56.6426 15.6172 55.8291 16.123 54.8037 16.123ZM55.0293 9.81348C53.7715 9.81348 52.9785 10.8389 52.9785 12.4453C52.9785 14.0586 53.7715 15.0771 55.0293 15.0771C56.2529 15.0771 57.0732 14.0381 57.0732 12.4453C57.0732 10.8594 56.2529 9.81348 55.0293 9.81348ZM59.9238 16V8.89062H61.1133V16H59.9238ZM60.5186 7.69434C60.1152 7.69434 59.7803 7.35938 59.7803 6.95605C59.7803 6.5459 60.1152 6.21777 60.5186 6.21777C60.9287 6.21777 61.2637 6.5459 61.2637 6.95605C61.2637 7.35938 60.9287 7.69434 60.5186 7.69434ZM63.1025 7.1748H64.292V8.89062H65.6729V9.86816H64.292V14.0928C64.292 14.7422 64.5654 15.0361 65.1738 15.0361C65.3105 15.0361 65.584 15.0156 65.666 15.002V16C65.5225 16.0342 65.1943 16.0547 64.9141 16.0547C63.6084 16.0547 63.1025 15.5215 63.1025 14.1543V9.86816H62.043V8.89062H63.1025V7.1748Z" fill="#B3B3B3"/>
<path d="M3.19531 43H0.9375V31.7266H2.90625L8.17188 39.0703H8.23438V31.7266H10.4922V43H8.53906L3.26562 35.6172H3.19531V43Z" fill="#245EF5"/>
<path d="M14.6641 35.1172C14.6641 32.9844 16.3672 31.4766 18.8281 31.4766C21.2031 31.4766 22.8359 32.8516 22.8359 34.7344C22.8359 36.1406 21.8984 37.1953 20.6562 38.4297L17.9062 41.0781V41.125H22.9922V43H14.7969V41.4141L19.0469 37.3203C20.1875 36.1797 20.5391 35.6094 20.5391 34.8281C20.5391 33.9844 19.7969 33.3125 18.75 33.3125C17.6562 33.3125 16.8516 34.0781 16.8516 35.1172V35.1562H14.6641V35.1172ZM28.8203 43.25C25.9844 43.25 24.2578 40.9922 24.2578 37.3438C24.2578 33.7031 26 31.4688 28.8203 31.4688C31.6406 31.4688 33.375 33.6953 33.375 37.3359C33.375 40.9766 31.6562 43.25 28.8203 43.25ZM28.8203 41.3594C30.1641 41.3594 30.9766 39.9141 30.9766 37.3438C30.9766 34.7969 30.1562 33.3594 28.8203 33.3594C27.4922 33.3594 26.6562 34.8047 26.6562 37.3438C26.6562 39.9062 27.4766 41.3594 28.8203 41.3594ZM39.2422 43.25C36.4062 43.25 34.6797 40.9922 34.6797 37.3438C34.6797 33.7031 36.4219 31.4688 39.2422 31.4688C42.0625 31.4688 43.7969 33.6953 43.7969 37.3359C43.7969 40.9766 42.0781 43.25 39.2422 43.25ZM39.2422 41.3594C40.5859 41.3594 41.3984 39.9141 41.3984 37.3438C41.3984 34.7969 40.5781 33.3594 39.2422 33.3594C37.9141 33.3594 37.0781 34.8047 37.0781 37.3438C37.0781 39.9062 37.8984 41.3594 39.2422 41.3594ZM46.4844 45.4688H44.7734L45.3594 41.0625H47.5312L46.4844 45.4688ZM53.4922 43.25C50.6562 43.25 48.9297 40.9922 48.9297 37.3438C48.9297 33.7031 50.6719 31.4688 53.4922 31.4688C56.3125 31.4688 58.0469 33.6953 58.0469 37.3359C58.0469 40.9766 56.3281 43.25 53.4922 43.25ZM53.4922 41.3594C54.8359 41.3594 55.6484 39.9141 55.6484 37.3438C55.6484 34.7969 54.8281 33.3594 53.4922 33.3594C52.1641 33.3594 51.3281 34.8047 51.3281 37.3438C51.3281 39.9062 52.1484 41.3594 53.4922 41.3594ZM63.9141 43.25C61.0781 43.25 59.3516 40.9922 59.3516 37.3438C59.3516 33.7031 61.0938 31.4688 63.9141 31.4688C66.7344 31.4688 68.4688 33.6953 68.4688 37.3359C68.4688 40.9766 66.75 43.25 63.9141 43.25ZM63.9141 41.3594C65.2578 41.3594 66.0703 39.9141 66.0703 37.3438C66.0703 34.7969 65.25 33.3594 63.9141 33.3594C62.5859 33.3594 61.75 34.8047 61.75 37.3438C61.75 39.9062 62.5703 41.3594 63.9141 41.3594ZM74.3359 43.25C71.5 43.25 69.7734 40.9922 69.7734 37.3438C69.7734 33.7031 71.5156 31.4688 74.3359 31.4688C77.1562 31.4688 78.8906 33.6953 78.8906 37.3359C78.8906 40.9766 77.1719 43.25 74.3359 43.25ZM74.3359 41.3594C75.6797 41.3594 76.4922 39.9141 76.4922 37.3438C76.4922 34.7969 75.6719 33.3594 74.3359 33.3594C73.0078 33.3594 72.1719 34.8047 72.1719 37.3438C72.1719 39.9062 72.9922 41.3594 74.3359 41.3594Z" fill="#245EF5"/>
<path d="M109.683 16H108.452V7.24316H105.342V6.13574H112.793V7.24316H109.683V16ZM115.008 16.123C113.039 16.123 111.713 14.708 111.713 12.4453C111.713 10.1758 113.039 8.76758 115.008 8.76758C116.97 8.76758 118.296 10.1758 118.296 12.4453C118.296 14.708 116.97 16.123 115.008 16.123ZM115.008 15.0771C116.266 15.0771 117.086 14.1201 117.086 12.4453C117.086 10.7705 116.266 9.81348 115.008 9.81348C113.75 9.81348 112.923 10.7705 112.923 12.4453C112.923 14.1201 113.75 15.0771 115.008 15.0771ZM119.882 7.1748H121.071V8.89062H122.452V9.86816H121.071V14.0928C121.071 14.7422 121.345 15.0361 121.953 15.0361C122.09 15.0361 122.363 15.0156 122.445 15.002V16C122.302 16.0342 121.974 16.0547 121.693 16.0547C120.388 16.0547 119.882 15.5215 119.882 14.1543V9.86816H118.822V8.89062H119.882V7.1748ZM125.932 15.1113C127.053 15.1113 127.914 14.3252 127.914 13.2998V12.7188L126.014 12.835C125.057 12.8965 124.51 13.3203 124.51 13.9902C124.51 14.667 125.077 15.1113 125.932 15.1113ZM125.665 16.123C124.25 16.123 123.3 15.2686 123.3 13.9902C123.3 12.7734 124.236 12.0078 125.877 11.9121L127.914 11.7959V11.2012C127.914 10.333 127.34 9.81348 126.355 9.81348C125.439 9.81348 124.865 10.2441 124.715 10.9414H123.566C123.648 9.71094 124.701 8.76758 126.383 8.76758C128.051 8.76758 129.104 9.66992 129.104 11.085V16H127.976V14.7764H127.948C127.524 15.5898 126.622 16.123 125.665 16.123ZM130.676 16V6.13574H131.865V16H130.676ZM136.527 6.13574H139.843C142.769 6.13574 144.498 7.96094 144.498 11.0645C144.498 14.1748 142.775 16 139.843 16H136.527V6.13574ZM137.758 7.24316V14.8926H139.761C141.996 14.8926 143.24 13.5254 143.24 11.0781C143.24 8.61035 142.003 7.24316 139.761 7.24316H137.758ZM148.695 9.7998C147.581 9.7998 146.802 10.6543 146.727 11.8369H150.589C150.562 10.6475 149.816 9.7998 148.695 9.7998ZM150.562 13.9629H151.73C151.525 15.207 150.322 16.123 148.771 16.123C146.733 16.123 145.496 14.708 145.496 12.4727C145.496 10.2646 146.754 8.76758 148.716 8.76758C150.637 8.76758 151.819 10.1621 151.819 12.3154V12.7666H146.72V12.835C146.72 14.1953 147.52 15.0908 148.798 15.0908C149.7 15.0908 150.363 14.6328 150.562 13.9629ZM156.557 16.123C155.518 16.123 154.704 15.6172 154.246 14.7969H154.219V16H153.084V6.13574H154.273V10.0801H154.301C154.745 9.2666 155.572 8.76758 156.577 8.76758C158.368 8.76758 159.578 10.2168 159.578 12.4453C159.578 14.6807 158.375 16.123 156.557 16.123ZM156.324 9.81348C155.121 9.81348 154.267 10.8662 154.267 12.4453C154.267 14.0312 155.121 15.0771 156.324 15.0771C157.582 15.0771 158.361 14.0723 158.361 12.4453C158.361 10.832 157.582 9.81348 156.324 9.81348ZM160.85 16V8.89062H162.039V16H160.85ZM161.444 7.69434C161.041 7.69434 160.706 7.35938 160.706 6.95605C160.706 6.5459 161.041 6.21777 161.444 6.21777C161.854 6.21777 162.189 6.5459 162.189 6.95605C162.189 7.35938 161.854 7.69434 161.444 7.69434ZM164.028 7.1748H165.218V8.89062H166.599V9.86816H165.218V14.0928C165.218 14.7422 165.491 15.0361 166.1 15.0361C166.236 15.0361 166.51 15.0156 166.592 15.002V16C166.448 16.0342 166.12 16.0547 165.84 16.0547C164.534 16.0547 164.028 15.5215 164.028 14.1543V9.86816H162.969V8.89062H164.028V7.1748Z" fill="#B3B3B3"/>
<path d="M108.195 43H105.938V31.7266H107.906L113.172 39.0703H113.234V31.7266H115.492V43H113.539L108.266 35.6172H108.195V43Z" fill="#C52D26"/>
<path d="M119.664 35.1172C119.664 32.9844 121.367 31.4766 123.828 31.4766C126.203 31.4766 127.836 32.8516 127.836 34.7344C127.836 36.1406 126.898 37.1953 125.656 38.4297L122.906 41.0781V41.125H127.992V43H119.797V41.4141L124.047 37.3203C125.188 36.1797 125.539 35.6094 125.539 34.8281C125.539 33.9844 124.797 33.3125 123.75 33.3125C122.656 33.3125 121.852 34.0781 121.852 35.1172V35.1562H119.664V35.1172ZM133.82 43.25C130.984 43.25 129.258 40.9922 129.258 37.3438C129.258 33.7031 131 31.4688 133.82 31.4688C136.641 31.4688 138.375 33.6953 138.375 37.3359C138.375 40.9766 136.656 43.25 133.82 43.25ZM133.82 41.3594C135.164 41.3594 135.977 39.9141 135.977 37.3438C135.977 34.7969 135.156 33.3594 133.82 33.3594C132.492 33.3594 131.656 34.8047 131.656 37.3438C131.656 39.9062 132.477 41.3594 133.82 41.3594ZM144.242 43.25C141.406 43.25 139.68 40.9922 139.68 37.3438C139.68 33.7031 141.422 31.4688 144.242 31.4688C147.062 31.4688 148.797 33.6953 148.797 37.3359C148.797 40.9766 147.078 43.25 144.242 43.25ZM144.242 41.3594C145.586 41.3594 146.398 39.9141 146.398 37.3438C146.398 34.7969 145.578 33.3594 144.242 33.3594C142.914 33.3594 142.078 34.8047 142.078 37.3438C142.078 39.9062 142.898 41.3594 144.242 41.3594ZM151.484 45.4688H149.773L150.359 41.0625H152.531L151.484 45.4688ZM158.492 43.25C155.656 43.25 153.93 40.9922 153.93 37.3438C153.93 33.7031 155.672 31.4688 158.492 31.4688C161.312 31.4688 163.047 33.6953 163.047 37.3359C163.047 40.9766 161.328 43.25 158.492 43.25ZM158.492 41.3594C159.836 41.3594 160.648 39.9141 160.648 37.3438C160.648 34.7969 159.828 33.3594 158.492 33.3594C157.164 33.3594 156.328 34.8047 156.328 37.3438C156.328 39.9062 157.148 41.3594 158.492 41.3594ZM168.914 43.25C166.078 43.25 164.352 40.9922 164.352 37.3438C164.352 33.7031 166.094 31.4688 168.914 31.4688C171.734 31.4688 173.469 33.6953 173.469 37.3359C173.469 40.9766 171.75 43.25 168.914 43.25ZM168.914 41.3594C170.258 41.3594 171.07 39.9141 171.07 37.3438C171.07 34.7969 170.25 33.3594 168.914 33.3594C167.586 33.3594 166.75 34.8047 166.75 37.3438C166.75 39.9062 167.57 41.3594 168.914 41.3594ZM179.336 43.25C176.5 43.25 174.773 40.9922 174.773 37.3438C174.773 33.7031 176.516 31.4688 179.336 31.4688C182.156 31.4688 183.891 33.6953 183.891 37.3359C183.891 40.9766 182.172 43.25 179.336 43.25ZM179.336 41.3594C180.68 41.3594 181.492 39.9141 181.492 37.3438C181.492 34.7969 180.672 33.3594 179.336 33.3594C178.008 33.3594 177.172 34.8047 177.172 37.3438C177.172 39.9062 177.992 41.3594 179.336 41.3594Z" fill="#C52D26"/>
<mask id="path-7-inside-1_7552_45442" fill="white">
<path d="M0 73H32V254H0V73Z"/>
</mask>
<path d="M31.5 73V254H32.5V73H31.5Z" fill="#DBDBDB" mask="url(#path-7-inside-1_7552_45442)"/>
<path d="M2.8418 86V78.6641H2.81836L0.580078 80.2754V79.1621L2.83008 77.5449H3.86133V86H2.8418ZM5.98242 86V79.9062H6.94336V80.8789H6.9668C7.25391 80.2344 7.875 79.8008 8.69531 79.8008C9.52734 79.8008 10.1426 80.2227 10.4062 80.9609H10.4297C10.7695 80.2344 11.4844 79.8008 12.3398 79.8008C13.5469 79.8008 14.3262 80.5859 14.3262 81.793V86H13.3066V82.0273C13.3066 81.1953 12.8438 80.7031 12.041 80.7031C11.2324 80.7031 10.6641 81.3008 10.6641 82.127V86H9.64453V81.916C9.64453 81.1836 9.15234 80.7031 8.39648 80.7031C7.58789 80.7031 7.00195 81.3359 7.00195 82.1797V86H5.98242Z" fill="#B3B3B3"/>
<path d="M3.5918 127.141C1.97461 127.141 0.779297 126.133 0.691406 124.691H1.72852C1.82227 125.594 2.58984 126.215 3.60352 126.215C4.75195 126.215 5.54883 125.418 5.54883 124.281C5.54883 123.145 4.74609 122.33 3.62109 122.33C2.83008 122.33 2.15625 122.688 1.81055 123.279H0.820312L1.2832 118.545H6.12305V119.482H2.15039L1.89258 122.236H1.91602C2.29688 121.727 3 121.422 3.80859 121.422C5.43164 121.422 6.60352 122.611 6.60352 124.252C6.60352 125.951 5.35547 127.141 3.5918 127.141ZM10.6641 127.141C8.68945 127.141 7.54688 125.441 7.54688 122.77C7.54688 120.121 8.70117 118.404 10.6641 118.404C12.627 118.404 13.7695 120.109 13.7695 122.764C13.7695 125.436 12.6328 127.141 10.6641 127.141ZM10.6641 126.221C11.9824 126.221 12.709 124.879 12.709 122.77C12.709 120.689 11.9707 119.33 10.6641 119.33C9.35742 119.33 8.60742 120.701 8.60742 122.764C8.60742 124.873 9.33984 126.221 10.6641 126.221ZM17.9414 127.141C15.9668 127.141 14.8242 125.441 14.8242 122.77C14.8242 120.121 15.9785 118.404 17.9414 118.404C19.9043 118.404 21.0469 120.109 21.0469 122.764C21.0469 125.436 19.9102 127.141 17.9414 127.141ZM17.9414 126.221C19.2598 126.221 19.9863 124.879 19.9863 122.77C19.9863 120.689 19.248 119.33 17.9414 119.33C16.6348 119.33 15.8848 120.701 15.8848 122.764C15.8848 124.873 16.6172 126.221 17.9414 126.221ZM23.3086 123.613L26.0039 120.906H27.2402L24.5977 123.537L27.3223 127H26.1387L23.877 124.164L23.3086 124.703V127H22.2891V118.545H23.3086V123.613Z" fill="#B3B3B3"/>
<path d="M0.632812 161.982C0.632812 160.506 1.82812 159.404 3.42188 159.404C4.93359 159.404 6.12305 160.43 6.12305 161.725C6.12305 162.668 5.69531 163.371 4.2832 164.83L2.14453 167.039V167.062H6.26367V168H0.685547V167.273L3.66211 164.139C4.79883 162.943 5.06836 162.492 5.06836 161.789C5.06836 160.975 4.32422 160.324 3.39258 160.324C2.40234 160.324 1.65234 161.039 1.65234 161.982V161.988H0.632812V161.982ZM10.4414 168.141C8.4668 168.141 7.32422 166.441 7.32422 163.77C7.32422 161.121 8.47852 159.404 10.4414 159.404C12.4043 159.404 13.5469 161.109 13.5469 163.764C13.5469 166.436 12.4102 168.141 10.4414 168.141ZM10.4414 167.221C11.7598 167.221 12.4863 165.879 12.4863 163.77C12.4863 161.689 11.748 160.33 10.4414 160.33C9.13477 160.33 8.38477 161.701 8.38477 163.764C8.38477 165.873 9.11719 167.221 10.4414 167.221ZM17.7188 168.141C15.7441 168.141 14.6016 166.441 14.6016 163.77C14.6016 161.121 15.7559 159.404 17.7188 159.404C19.6816 159.404 20.8242 161.109 20.8242 163.764C20.8242 166.436 19.6875 168.141 17.7188 168.141ZM17.7188 167.221C19.0371 167.221 19.7637 165.879 19.7637 163.77C19.7637 161.689 19.0254 160.33 17.7188 160.33C16.4121 160.33 15.6621 161.701 15.6621 163.764C15.6621 165.873 16.3945 167.221 17.7188 167.221ZM23.0859 164.613L25.7812 161.906H27.0176L24.375 164.537L27.0996 168H25.916L23.6543 165.164L23.0859 165.703V168H22.0664V159.545H23.0859V164.613Z" fill="#B3B3B3"/>
<path d="M2.8418 209V201.664H2.81836L0.580078 203.275V202.162L2.83008 200.545H3.86133V209H2.8418ZM8.96484 209.141C6.99023 209.141 5.84766 207.441 5.84766 204.77C5.84766 202.121 7.00195 200.404 8.96484 200.404C10.9277 200.404 12.0703 202.109 12.0703 204.764C12.0703 207.436 10.9336 209.141 8.96484 209.141ZM8.96484 208.221C10.2832 208.221 11.0098 206.879 11.0098 204.77C11.0098 202.689 10.2715 201.33 8.96484 201.33C7.6582 201.33 6.9082 202.701 6.9082 204.764C6.9082 206.873 7.64062 208.221 8.96484 208.221ZM16.2422 209.141C14.2676 209.141 13.125 207.441 13.125 204.77C13.125 202.121 14.2793 200.404 16.2422 200.404C18.2051 200.404 19.3477 202.109 19.3477 204.764C19.3477 207.436 18.2109 209.141 16.2422 209.141ZM16.2422 208.221C17.5605 208.221 18.2871 206.879 18.2871 204.77C18.2871 202.689 17.5488 201.33 16.2422 201.33C14.9355 201.33 14.1855 202.701 14.1855 204.764C14.1855 206.873 14.918 208.221 16.2422 208.221ZM21.6094 205.613L24.3047 202.906H25.541L22.8984 205.537L25.623 209H24.4395L22.1777 206.164L21.6094 206.703V209H20.5898V200.545H21.6094V205.613Z" fill="#B3B3B3"/>
<path d="M3.64453 250.141C1.66992 250.141 0.527344 248.441 0.527344 245.77C0.527344 243.121 1.68164 241.404 3.64453 241.404C5.60742 241.404 6.75 243.109 6.75 245.764C6.75 248.436 5.61328 250.141 3.64453 250.141ZM3.64453 249.221C4.96289 249.221 5.68945 247.879 5.68945 245.77C5.68945 243.689 4.95117 242.33 3.64453 242.33C2.33789 242.33 1.58789 243.701 1.58789 245.764C1.58789 247.873 2.32031 249.221 3.64453 249.221Z" fill="#B3B3B3"/>
<mask id="path-14-inside-2_7552_45442" fill="white">
<path d="M31 254H520V287H31V254Z"/>
</mask>
<path d="M31 254.5H520V253.5H31V254.5Z" fill="#E6E6E6" mask="url(#path-14-inside-2_7552_45442)"/>
<path d="M40.1523 275H39.168V268.484H39.127L36.4316 274.941H35.541L32.8457 268.484H32.8047V275H31.8203V266.545H33.0449L35.9629 273.6H36.0098L38.9277 266.545H40.1523V275ZM44.1602 275.105C42.4727 275.105 41.3359 273.893 41.3359 271.953C41.3359 270.008 42.4727 268.801 44.1602 268.801C45.8418 268.801 46.9785 270.008 46.9785 271.953C46.9785 273.893 45.8418 275.105 44.1602 275.105ZM44.1602 274.209C45.2383 274.209 45.9414 273.389 45.9414 271.953C45.9414 270.518 45.2383 269.697 44.1602 269.697C43.082 269.697 42.373 270.518 42.373 271.953C42.373 273.389 43.082 274.209 44.1602 274.209ZM48.0098 275V268.906H48.9707V269.879H48.9941C49.334 269.223 49.9844 268.801 50.9277 268.801C52.2637 268.801 53.0371 269.662 53.0371 271.045V275H52.0176V271.227C52.0176 270.242 51.5547 269.703 50.6172 269.703C49.6562 269.703 49.0293 270.383 49.0293 271.414V275H48.0098Z" fill="#B3B3B3"/>
<path d="M111.014 275H109.959V267.494H107.293V266.545H113.68V267.494H111.014V275ZM118.314 268.906V275H117.348V274.01H117.324C116.961 274.713 116.328 275.105 115.391 275.105C114.061 275.105 113.281 274.244 113.281 272.861V268.906H114.301V272.68C114.301 273.67 114.764 274.203 115.707 274.203C116.697 274.203 117.295 273.523 117.295 272.486V268.906H118.314ZM122.082 269.686C121.127 269.686 120.459 270.418 120.395 271.432H123.705C123.682 270.412 123.043 269.686 122.082 269.686ZM123.682 273.254H124.684C124.508 274.32 123.477 275.105 122.146 275.105C120.4 275.105 119.34 273.893 119.34 271.977C119.34 270.084 120.418 268.801 122.1 268.801C123.746 268.801 124.76 269.996 124.76 271.842V272.229H120.389V272.287C120.389 273.453 121.074 274.221 122.17 274.221C122.943 274.221 123.512 273.828 123.682 273.254Z" fill="#B3B3B3"/>
<path d="M188.514 268.291L186.562 275H185.566L183.264 266.545H184.365L186.059 273.447H186.105L188.01 266.545H189.076L190.98 273.447H191.027L192.721 266.545H193.822L191.52 275H190.523L188.572 268.291H188.514ZM196.547 269.686C195.592 269.686 194.924 270.418 194.859 271.432H198.17C198.146 270.412 197.508 269.686 196.547 269.686ZM198.146 273.254H199.148C198.973 274.32 197.941 275.105 196.611 275.105C194.865 275.105 193.805 273.893 193.805 271.977C193.805 270.084 194.883 268.801 196.564 268.801C198.211 268.801 199.225 269.996 199.225 271.842V272.229H194.854V272.287C194.854 273.453 195.539 274.221 196.635 274.221C197.408 274.221 197.977 273.828 198.146 273.254ZM202.564 275.105C201.012 275.105 199.957 273.863 199.957 271.953C199.957 270.043 201.006 268.801 202.541 268.801C203.414 268.801 204.117 269.229 204.48 269.896H204.504V266.545H205.523V275H204.551V273.969H204.533C204.141 274.672 203.443 275.105 202.564 275.105ZM202.758 269.697C201.68 269.697 201 270.576 201 271.953C201 273.336 201.68 274.209 202.758 274.209C203.807 274.209 204.51 273.318 204.51 271.953C204.51 270.594 203.807 269.697 202.758 269.697Z" fill="#B3B3B3"/>
<path d="M263.014 275H261.959V267.494H259.293V266.545H265.68V267.494H263.014V275ZM266.688 275V266.545H267.707V269.879H267.73C268.07 269.199 268.738 268.801 269.664 268.801C271 268.801 271.809 269.703 271.809 271.062V275H270.789V271.25C270.789 270.283 270.303 269.703 269.348 269.703C268.334 269.703 267.707 270.395 267.707 271.449V275H266.688ZM278.107 268.906V275H277.141V274.01H277.117C276.754 274.713 276.121 275.105 275.184 275.105C273.854 275.105 273.074 274.244 273.074 272.861V268.906H274.094V272.68C274.094 273.67 274.557 274.203 275.5 274.203C276.49 274.203 277.088 273.523 277.088 272.486V268.906H278.107Z" fill="#B3B3B3"/>
<path d="M336.875 275H335.82V266.545H340.953V267.494H336.875V270.4H340.619V271.338H336.875V275ZM342.002 275V268.906H342.963V269.902H342.986C343.186 269.229 343.748 268.801 344.463 268.801C344.639 268.801 344.791 268.83 344.873 268.842V269.832C344.791 269.803 344.574 269.773 344.328 269.773C343.537 269.773 343.021 270.342 343.021 271.203V275H342.002ZM345.758 275V268.906H346.777V275H345.758ZM346.268 267.881C345.922 267.881 345.635 267.594 345.635 267.248C345.635 266.896 345.922 266.615 346.268 266.615C346.619 266.615 346.906 266.896 346.906 267.248C346.906 267.594 346.619 267.881 346.268 267.881Z" fill="#B3B3B3"/>
<path d="M411.416 272.674H412.477C412.576 273.588 413.443 274.191 414.65 274.191C415.793 274.191 416.625 273.588 416.625 272.756C416.625 272.041 416.127 271.602 414.99 271.309L413.906 271.027C412.348 270.629 411.656 269.943 411.656 268.795C411.656 267.389 412.887 266.404 414.645 266.404C416.326 266.404 417.545 267.4 417.592 268.818H416.537C416.443 267.91 415.711 267.354 414.609 267.354C413.514 267.354 412.752 267.922 412.752 268.748C412.752 269.387 413.221 269.768 414.369 270.066L415.254 270.301C417.006 270.74 417.715 271.414 417.715 272.627C417.715 274.174 416.496 275.141 414.551 275.141C412.758 275.141 411.516 274.168 411.416 272.674ZM420.797 274.238C421.758 274.238 422.496 273.564 422.496 272.686V272.188L420.867 272.287C420.047 272.34 419.578 272.703 419.578 273.277C419.578 273.857 420.064 274.238 420.797 274.238ZM420.568 275.105C419.355 275.105 418.541 274.373 418.541 273.277C418.541 272.234 419.344 271.578 420.75 271.496L422.496 271.396V270.887C422.496 270.143 422.004 269.697 421.16 269.697C420.375 269.697 419.883 270.066 419.754 270.664H418.77C418.84 269.609 419.742 268.801 421.184 268.801C422.613 268.801 423.516 269.574 423.516 270.787V275H422.549V273.951H422.525C422.162 274.648 421.389 275.105 420.568 275.105ZM425.139 267.436H426.158V268.906H427.342V269.744H426.158V273.365C426.158 273.922 426.393 274.174 426.914 274.174C427.031 274.174 427.266 274.156 427.336 274.145V275C427.213 275.029 426.932 275.047 426.691 275.047C425.572 275.047 425.139 274.59 425.139 273.418V269.744H424.23V268.906H425.139V267.436Z" fill="#B3B3B3"/>
<path d="M487.416 272.674H488.477C488.576 273.588 489.443 274.191 490.65 274.191C491.793 274.191 492.625 273.588 492.625 272.756C492.625 272.041 492.127 271.602 490.99 271.309L489.906 271.027C488.348 270.629 487.656 269.943 487.656 268.795C487.656 267.389 488.887 266.404 490.645 266.404C492.326 266.404 493.545 267.4 493.592 268.818H492.537C492.443 267.91 491.711 267.354 490.609 267.354C489.514 267.354 488.752 267.922 488.752 268.748C488.752 269.387 489.221 269.768 490.369 270.066L491.254 270.301C493.006 270.74 493.715 271.414 493.715 272.627C493.715 274.174 492.496 275.141 490.551 275.141C488.758 275.141 487.516 274.168 487.416 272.674ZM499.791 268.906V275H498.824V274.01H498.801C498.438 274.713 497.805 275.105 496.867 275.105C495.537 275.105 494.758 274.244 494.758 272.861V268.906H495.777V272.68C495.777 273.67 496.24 274.203 497.184 274.203C498.174 274.203 498.771 273.523 498.771 272.486V268.906H499.791ZM501.115 275V268.906H502.076V269.879H502.1C502.439 269.223 503.09 268.801 504.033 268.801C505.369 268.801 506.143 269.662 506.143 271.045V275H505.123V271.227C505.123 270.242 504.66 269.703 503.723 269.703C502.762 269.703 502.135 270.383 502.135 271.414V275H501.115Z" fill="#B3B3B3"/>
<path d="M35 219.223L93.6064 217.007C94.866 216.96 96.1272 217.031 97.3734 217.221L147.382 224.838C152.878 225.675 158.474 224.187 162.828 220.731L183.06 204.672C185.165 203.001 187.585 201.771 190.176 201.057L207.282 196.339C213.111 194.731 219.355 195.847 224.267 199.374L262.338 226.716C270.667 232.697 282.171 231.411 288.973 223.736L329.971 177.476C334.641 172.207 341.736 169.782 348.653 171.089L386.86 178.31C393.77 179.616 400.858 177.196 405.528 171.938L452.832 118.67C456.452 114.592 461.581 112.17 467.031 111.964L519 110" stroke="#C52D26" stroke-width="3"/>
<path d="M35 228.189L90.0558 224.274C93.6201 224.021 97.1872 224.727 100.386 226.319L140.256 246.164C149.259 250.645 160.19 247.744 165.786 239.388L184.982 210.723C185.825 209.465 186.522 208.116 187.06 206.701L203.499 163.449C209.118 148.667 228.861 145.945 238.27 158.656L259.382 187.18C267.812 198.568 285.083 197.822 292.499 185.749L324.811 133.148C331.391 122.437 346.103 120.379 355.369 128.874L386.661 157.566C393.346 163.695 403.318 164.559 410.958 159.67L454.214 131.988C457.026 130.188 460.245 129.121 463.576 128.885L519 124.944" stroke="#245EF5" stroke-width="3"/>
</svg>
