<svg width="20" height="21" viewBox="0 0 20 21" fill="none" xmlns="http://www.w3.org/2000/svg">
<path d="M9.99846 13.4179C9.80375 13.4183 9.61505 13.3505 9.46513 13.2262L4.46513 9.05956C4.11074 8.76501 4.06224 8.23894 4.35679 7.88456C4.65134 7.53018 5.17741 7.48167 5.53179 7.77623L9.99846 11.5096L14.4651 7.90956C14.6373 7.76975 14.8581 7.70433 15.0786 7.7278C15.2991 7.75126 15.5012 7.86166 15.6401 8.03456C15.7944 8.20777 15.8695 8.43746 15.8474 8.66836C15.8252 8.89926 15.7078 9.11048 15.5235 9.25123L10.5235 13.2762C10.3692 13.3808 10.1844 13.4307 9.99846 13.4179Z" fill="#B3B3B3"/>
</svg>
