<svg width="20" height="20" viewBox="0 0 20 20" fill="none" xmlns="http://www.w3.org/2000/svg">
<path d="M8.3348 15.8336C8.14009 15.834 7.9514 15.7662 7.80147 15.6419C7.63105 15.5007 7.52385 15.2974 7.50352 15.0769C7.4832 14.8565 7.55142 14.637 7.69314 14.4669L11.4265 10.0003L7.82647 5.52528C7.68666 5.35312 7.62125 5.13233 7.64471 4.91179C7.66817 4.69126 7.77857 4.48917 7.95147 4.35028C8.12577 4.19691 8.35616 4.12322 8.58711 4.14695C8.81807 4.17067 9.02866 4.28968 9.16814 4.47528L13.1931 9.47528C13.4459 9.78278 13.4459 10.2261 13.1931 10.5336L9.02647 15.5336C8.85692 15.7382 8.6 15.8496 8.3348 15.8336Z" fill="#474747"/>
</svg>
