<svg width="60" height="16" viewBox="0 0 60 16" fill="none" xmlns="http://www.w3.org/2000/svg">
<path d="M6.41211 15H0.171875V0.908203H6.30469C8.95117 0.908203 10.6113 2.26562 10.6113 4.42383C10.6113 5.9668 9.45898 7.25586 7.96484 7.48047V7.55859C9.87891 7.70508 11.2852 9.10156 11.2852 10.9668C11.2852 13.4473 9.41992 15 6.41211 15ZM3.12109 3.10547V6.76758H5.24023C6.8125 6.76758 7.71094 6.07422 7.71094 4.88281C7.71094 3.75 6.91992 3.10547 5.54297 3.10547H3.12109ZM3.12109 12.8027H5.66016C7.35938 12.8027 8.27734 12.0801 8.27734 10.7324C8.27734 9.41406 7.33008 8.71094 5.5918 8.71094H3.12109V12.8027ZM16.3637 13.1055C17.6039 13.1055 18.6293 12.2949 18.6293 11.1621V10.4004L16.4223 10.5371C15.3578 10.6152 14.7523 11.0938 14.7523 11.8359C14.7523 12.6172 15.3969 13.1055 16.3637 13.1055ZM15.4262 15.166C13.434 15.166 11.9203 13.877 11.9203 11.9922C11.9203 10.0879 13.3852 8.98438 15.9926 8.82812L18.6293 8.67188V7.97852C18.6293 7.00195 17.9457 6.43555 16.8715 6.43555C15.807 6.43555 15.1332 6.96289 14.9965 7.73438H12.3891C12.4965 5.70312 14.225 4.30664 16.9984 4.30664C19.684 4.30664 21.432 5.69336 21.432 7.80273V15H18.6781V13.3984H18.6195C18.0336 14.5117 16.7348 15.166 15.4262 15.166ZM22.8777 15V4.53125H25.6316V6.39648H25.6902C26.2469 5.09766 27.3504 4.33594 28.9617 4.33594C31.2859 4.33594 32.5945 5.80078 32.5945 8.25195V15H29.743V8.84766C29.743 7.48047 29.0984 6.69922 27.8191 6.69922C26.5398 6.69922 25.7293 7.63672 25.7293 8.99414V15H22.8777ZM36.9602 8.73047L40.5148 4.53125H43.7473L39.7531 9.02344L43.9426 15H40.6613L37.6633 10.7422L36.9211 11.543V15H34.0695V0.908203H36.9211V8.73047H36.9602Z" fill="#062983"/>
<path d="M47.5563 15H44.607V0.908203H47.5563V15ZM55.8184 15H52.8691V3.33984H48.7969V0.908203H59.9004V3.33984H55.8184V15Z" fill="#E46C0B"/>
</svg>
