<svg width="56" height="56" viewBox="0 0 56 56" fill="none" xmlns="http://www.w3.org/2000/svg">
<g filter="url(#filter0_b_6839_20740)">
<rect width="56" height="56" rx="28" fill="#E7EDFE"/>
</g>
<path d="M33.62 26.7496C33.19 26.7496 32.85 26.3996 32.85 25.9796C32.85 25.6096 32.48 24.8396 31.86 24.1696C31.25 23.5196 30.58 23.1396 30.02 23.1396C29.59 23.1396 29.25 22.7896 29.25 22.3696C29.25 21.9496 29.6 21.5996 30.02 21.5996C31.02 21.5996 32.07 22.1396 32.99 23.1096C33.85 24.0196 34.4 25.1496 34.4 25.9696C34.4 26.3996 34.05 26.7496 33.62 26.7496Z" fill="#062983"/>
<path d="M37.2317 26.75C36.8017 26.75 36.4617 26.4 36.4617 25.98C36.4617 22.43 33.5717 19.55 30.0317 19.55C29.6017 19.55 29.2617 19.2 29.2617 18.78C29.2617 18.36 29.6017 18 30.0217 18C34.4217 18 38.0017 21.58 38.0017 25.98C38.0017 26.4 37.6517 26.75 37.2317 26.75Z" fill="#062983"/>
<path d="M27.05 30.95L25.2 32.8C24.81 33.19 24.19 33.19 23.79 32.81C23.68 32.7 23.57 32.6 23.46 32.49C22.43 31.45 21.5 30.36 20.67 29.22C19.85 28.08 19.19 26.94 18.71 25.81C18.24 24.67 18 23.58 18 22.54C18 21.86 18.12 21.21 18.36 20.61C18.6 20 18.98 19.44 19.51 18.94C20.15 18.31 20.85 18 21.59 18C21.87 18 22.15 18.06 22.4 18.18C22.66 18.3 22.89 18.48 23.07 18.74L25.39 22.01C25.57 22.26 25.7 22.49 25.79 22.71C25.88 22.92 25.93 23.13 25.93 23.32C25.93 23.56 25.86 23.8 25.72 24.03C25.59 24.26 25.4 24.5 25.16 24.74L24.4 25.53C24.29 25.64 24.24 25.77 24.24 25.93C24.24 26.01 24.25 26.08 24.27 26.16C24.3 26.24 24.33 26.3 24.35 26.36C24.53 26.69 24.84 27.12 25.28 27.64C25.73 28.16 26.21 28.69 26.73 29.22C26.83 29.32 26.94 29.42 27.04 29.52C27.44 29.91 27.45 30.55 27.05 30.95Z" fill="#062983"/>
<path d="M37.9716 34.33C37.9716 34.61 37.9216 34.9 37.8216 35.18C37.7916 35.26 37.7616 35.34 37.7216 35.42C37.5516 35.78 37.3316 36.12 37.0416 36.44C36.5516 36.98 36.0116 37.37 35.4016 37.62C35.3916 37.62 35.3816 37.63 35.3716 37.63C34.7816 37.87 34.1416 38 33.4516 38C32.4316 38 31.3416 37.76 30.1916 37.27C29.0416 36.78 27.8916 36.12 26.7516 35.29C26.3616 35 25.9716 34.71 25.6016 34.4L28.8716 31.13C29.1516 31.34 29.4016 31.5 29.6116 31.61C29.6616 31.63 29.7216 31.66 29.7916 31.69C29.8716 31.72 29.9516 31.73 30.0416 31.73C30.2116 31.73 30.3416 31.67 30.4516 31.56L31.2116 30.81C31.4616 30.56 31.7016 30.37 31.9316 30.25C32.1616 30.11 32.3916 30.04 32.6416 30.04C32.8316 30.04 33.0316 30.08 33.2516 30.17C33.4716 30.26 33.7016 30.39 33.9516 30.56L37.2616 32.91C37.5216 33.09 37.7016 33.3 37.8116 33.55C37.9116 33.8 37.9716 34.05 37.9716 34.33Z" fill="#062983"/>
<defs>
<filter id="filter0_b_6839_20740" x="-20" y="-20" width="96" height="96" filterUnits="userSpaceOnUse" color-interpolation-filters="sRGB">
<feFlood flood-opacity="0" result="BackgroundImageFix"/>
<feGaussianBlur in="BackgroundImageFix" stdDeviation="10"/>
<feComposite in2="SourceAlpha" operator="in" result="effect1_backgroundBlur_6839_20740"/>
<feBlend mode="normal" in="SourceGraphic" in2="effect1_backgroundBlur_6839_20740" result="shape"/>
</filter>
</defs>
</svg>
