<svg width="56" height="56" viewBox="0 0 56 56" fill="none" xmlns="http://www.w3.org/2000/svg">
<g filter="url(#filter0_b_6842_63084)">
<rect width="56" height="56" rx="28" fill="#E7EDFE"/>
</g>
<path d="M32.19 18H23.81C20.17 18 18 20.17 18 23.81V32.18C18 35.83 20.17 38 23.81 38H32.18C35.82 38 37.99 35.83 37.99 32.19V23.81C38 20.17 35.83 18 32.19 18ZM30.79 32.6C30.64 32.79 30.42 32.89 30.2 32.89C30.04 32.89 29.88 32.84 29.74 32.73C28.68 31.91 27.31 31.91 26.25 32.73C25.92 32.98 25.45 32.92 25.2 32.6C24.95 32.27 25.01 31.8 25.33 31.55C26.92 30.32 29.06 30.32 30.65 31.55C30.99 31.8 31.05 32.27 30.79 32.6ZM33 29.51C32.85 29.7 32.63 29.8 32.41 29.8C32.25 29.8 32.09 29.75 31.95 29.64C29.55 27.79 26.46 27.79 24.06 29.64C23.73 29.9 23.26 29.84 23 29.51C22.74 29.18 22.81 28.71 23.13 28.46C26.08 26.18 29.9 26.18 32.85 28.46C33.19 28.71 33.25 29.18 33 29.51ZM34.59 26.42C34.44 26.61 34.22 26.71 34 26.71C33.84 26.71 33.68 26.66 33.54 26.55C30.17 23.95 25.82 23.95 22.46 26.55C22.13 26.8 21.66 26.74 21.41 26.42C21.16 26.09 21.22 25.62 21.54 25.37C25.46 22.34 30.53 22.34 34.46 25.37C34.79 25.62 34.85 26.09 34.59 26.42Z" fill="#062983"/>
<defs>
<filter id="filter0_b_6842_63084" x="-20" y="-20" width="96" height="96" filterUnits="userSpaceOnUse" color-interpolation-filters="sRGB">
<feFlood flood-opacity="0" result="BackgroundImageFix"/>
<feGaussianBlur in="BackgroundImageFix" stdDeviation="10"/>
<feComposite in2="SourceAlpha" operator="in" result="effect1_backgroundBlur_6842_63084"/>
<feBlend mode="normal" in="SourceGraphic" in2="effect1_backgroundBlur_6842_63084" result="shape"/>
</filter>
</defs>
</svg>
