<svg width="56" height="56" viewBox="0 0 56 56" fill="none" xmlns="http://www.w3.org/2000/svg">
<g filter="url(#filter0_b_6839_20774)">
<rect width="56" height="56" rx="28" fill="#E7EDFE"/>
</g>
<path d="M19 33V25C19 24.4696 19.2107 23.9609 19.5858 23.5858C19.9609 23.2107 20.4696 23 21 23H35C35.5304 23 36.0391 23.2107 36.4142 23.5858C36.7893 23.9609 37 24.4696 37 25V33C37 33.5304 36.7893 34.0391 36.4142 34.4142C36.0391 34.7893 35.5304 35 35 35H21C20.4696 35 19.9609 34.7893 19.5858 34.4142C19.2107 34.0391 19 33.5304 19 33Z" fill="#062983"/>
<path d="M28 23H35C35.5304 23 36.0391 23.2107 36.4142 23.5858C36.7893 23.9609 37 24.4696 37 25V33C37 33.5304 36.7893 34.0391 36.4142 34.4142C36.0391 34.7893 35.5304 35 35 35H21C20.4696 35 19.9609 34.7893 19.5858 34.4142C19.2107 34.0391 19 33.5304 19 33V25C19 24.4696 19.2107 23.9609 19.5858 23.5858C19.9609 23.2107 20.4696 23 21 23H28ZM28 23L24 19M28 23L32 19" stroke="#062983" stroke-width="2" stroke-linecap="round" stroke-linejoin="round"/>
<defs>
<filter id="filter0_b_6839_20774" x="-20" y="-20" width="96" height="96" filterUnits="userSpaceOnUse" color-interpolation-filters="sRGB">
<feFlood flood-opacity="0" result="BackgroundImageFix"/>
<feGaussianBlur in="BackgroundImageFix" stdDeviation="10"/>
<feComposite in2="SourceAlpha" operator="in" result="effect1_backgroundBlur_6839_20774"/>
<feBlend mode="normal" in="SourceGraphic" in2="effect1_backgroundBlur_6839_20774" result="shape"/>
</filter>
</defs>
</svg>
