<svg width="24" height="24" viewBox="0 0 24 24" fill="none" xmlns="http://www.w3.org/2000/svg">
<path d="M2 17.4545C2 18.1296 2.26818 18.7771 2.74555 19.2545C3.22291 19.7318 3.87036 20 4.54545 20H19.8182C20.4933 20 21.1407 19.7318 21.6181 19.2545C22.0955 18.7771 22.3636 18.1296 22.3636 17.4545V10.4545H2V17.4545ZM5 14C5 13.6383 5.14367 13.2915 5.3994 13.0358C5.65513 12.78 6.00198 12.6364 6.36364 12.6364H8.54546C8.90711 12.6364 9.25396 12.78 9.50969 13.0358C9.76542 13.2915 9.90909 13.6383 9.90909 14V14.9091C9.90909 15.2708 9.76542 15.6176 9.50969 15.8733C9.25396 16.1291 8.90711 16.2727 8.54546 16.2727H6.36364C6.00198 16.2727 5.65513 16.1291 5.3994 15.8733C5.14367 15.6176 5 15.2708 5 14.9091V14ZM19.8182 4H4.54545C3.87036 4 3.22291 4.26818 2.74555 4.74555C2.26818 5.22291 2 5.87036 2 6.54545V7.72727H22.3636V6.54545C22.3636 5.87036 22.0955 5.22291 21.6181 4.74555C21.1407 4.26818 20.4933 4 19.8182 4Z" fill="#062983"/>
</svg>
