<svg width="20" height="20" viewBox="0 0 20 20" fill="none" xmlns="http://www.w3.org/2000/svg">
<path d="M13.493 1.6665H6.50964C3.4763 1.6665 1.66797 3.47484 1.66797 6.50817V13.4832C1.66797 16.5248 3.4763 18.3332 6.50964 18.3332H13.4846C16.518 18.3332 18.3263 16.5248 18.3263 13.4915V6.50817C18.3346 3.47484 16.5263 1.6665 13.493 1.6665ZM7.59297 14.0832C7.59297 14.3165 7.40964 14.4998 7.1763 14.4998H4.8513C4.61797 14.4998 4.43464 14.3165 4.43464 14.0832V10.2332C4.43464 9.70817 4.85964 9.28317 5.38464 9.28317H7.1763C7.40964 9.28317 7.59297 9.4665 7.59297 9.69984V14.0832ZM11.5763 14.0832C11.5763 14.3165 11.393 14.4998 11.1596 14.4998H8.83464C8.6013 14.4998 8.41797 14.3165 8.41797 14.0832V6.44984C8.41797 5.92484 8.84297 5.49984 9.36797 5.49984H10.6346C11.1596 5.49984 11.5846 5.92484 11.5846 6.44984V14.0832H11.5763ZM15.568 14.0832C15.568 14.3165 15.3846 14.4998 15.1513 14.4998H12.8263C12.593 14.4998 12.4096 14.3165 12.4096 14.0832V11.1248C12.4096 10.8915 12.593 10.7082 12.8263 10.7082H14.618C15.143 10.7082 15.568 11.1332 15.568 11.6582V14.0832Z" fill="#5482F7"/>
</svg>
