<svg width="20" height="21" viewBox="0 0 20 21" fill="none" xmlns="http://www.w3.org/2000/svg">
<path d="M13.3346 11.2493V14.7493C13.3346 17.666 12.168 18.8327 9.2513 18.8327H5.7513C2.83464 18.8327 1.66797 17.666 1.66797 14.7493V11.2493C1.66797 8.33268 2.83464 7.16602 5.7513 7.16602H9.2513C12.168 7.16602 13.3346 8.33268 13.3346 11.2493Z" fill="#062983"/>
<path d="M14.2508 2.16602H10.7508C8.24733 2.16602 7.03919 3.03167 6.74673 5.11509C6.66931 5.6666 7.13077 6.12435 7.68769 6.12435H9.25078C12.7508 6.12435 14.3758 7.74935 14.3758 11.2493V12.8124C14.3758 13.3694 14.8335 13.8308 15.385 13.7534C17.4685 13.4609 18.3341 12.2528 18.3341 9.74935V6.24935C18.3341 3.33268 17.1674 2.16602 14.2508 2.16602Z" fill="#062983"/>
</svg>
