<svg width="20" height="20" viewBox="0 0 20 20" fill="none" xmlns="http://www.w3.org/2000/svg">
<path d="M10.3108 2.74278V5.38167H9.2691V2.74278C9.2691 2.55528 9.10243 2.46501 8.99132 2.46501C8.9566 2.46501 8.92187 2.47195 8.88715 2.48584L3.38021 4.56223C3.01215 4.70112 2.77604 5.04834 2.77604 5.44417V5.90945C2.1441 6.38167 1.73438 7.13862 1.73438 7.99278V5.44417C1.73438 4.61778 2.24132 3.88167 3.01215 3.59001L8.52604 1.50667C8.67882 1.45112 8.83854 1.42334 8.99132 1.42334C9.68576 1.42334 10.3108 1.98584 10.3108 2.74278Z" fill="#5482F7"/>
<path d="M14.9303 10.0694V10.7638C14.9303 10.9513 14.7844 11.1041 14.59 11.1111H13.5761C13.208 11.1111 12.8747 10.8402 12.8469 10.4791C12.8261 10.2638 12.9094 10.0624 13.0483 9.92356C13.1733 9.79161 13.3469 9.72217 13.5344 9.72217H14.583C14.7844 9.72911 14.9303 9.88189 14.9303 10.0694Z" fill="#5482F7"/>
<path d="M13.526 8.99295H14.2344C14.6163 8.99295 14.9288 8.68045 14.9288 8.2985V7.99295C14.9288 6.55545 13.7552 5.38184 12.3177 5.38184H4.34549C3.75521 5.38184 3.21354 5.57628 2.77604 5.90961C2.1441 6.38184 1.73438 7.13878 1.73438 7.99295V12.6666C1.73438 14.1041 2.90799 15.2777 4.34549 15.2777H12.3177C13.7552 15.2777 14.9288 14.1041 14.9288 12.6666V12.5346C14.9288 12.1527 14.6163 11.8402 14.2344 11.8402H13.6302C12.9635 11.8402 12.3247 11.4304 12.151 10.7846C12.0052 10.2568 12.1788 9.74989 12.526 9.40961C12.783 9.14572 13.1372 8.99295 13.526 8.99295ZM9.72049 8.85406H4.85938C4.57465 8.85406 4.33854 8.61795 4.33854 8.33322C4.33854 8.0485 4.57465 7.81239 4.85938 7.81239H9.72049C10.0052 7.81239 10.2413 8.0485 10.2413 8.33322C10.2413 8.61795 10.0052 8.85406 9.72049 8.85406Z" fill="#5482F7"/>
</svg>
