<svg width="112" height="112" viewBox="0 0 112 112" fill="none" xmlns="http://www.w3.org/2000/svg">
<circle cx="56" cy="56" r="56" fill="#E6E6E6"/>
<g style="mix-blend-mode:multiply">
<path opacity="0.7" d="M67.9398 82.9995H42.95C42.1201 83.0044 41.2981 82.8388 40.5348 82.5128C39.7716 82.1869 39.0834 81.7076 38.513 81.1047C37.9427 80.5018 37.5022 79.7882 37.2191 79.0081C36.9359 78.228 36.816 77.398 36.8668 76.5696L39.0041 35.7797C39.1805 32.2434 42.2241 29.3498 45.7625 29.3498H70.7523C71.5831 29.3435 72.4062 29.5081 73.1707 29.8335C73.9351 30.1588 74.6245 30.6378 75.196 31.2409C75.7674 31.8439 76.2088 32.558 76.4926 33.3388C76.7764 34.1197 76.8965 34.9505 76.8456 35.7797L74.7064 76.5696C74.5218 80.106 71.4762 82.9995 67.9398 82.9995Z" fill="#DBDBDB"/>
<path d="M53.1803 27H51.625V27.2028H53.1803V27Z" fill="#DBDBDB"/>
<path d="M50.2986 27H44.8906V27.2028H50.2986V27Z" fill="#DBDBDB"/>
<path d="M36.304 40.9084L36.2227 42.4453L36.4251 42.456L36.5065 40.9191L36.304 40.9084Z" fill="#DBDBDB"/>
<path opacity="0.6" d="M66.5025 81.564H41.5046C40.6749 81.5689 39.853 81.4033 39.0899 81.0774C38.3268 80.7516 37.6387 80.2725 37.0684 79.6699C36.498 79.0672 36.0576 78.3538 35.7743 77.5739C35.491 76.7941 35.3709 75.9643 35.4214 75.1361L37.5607 34.3442C37.7452 30.8078 40.7908 27.9142 44.3272 27.9142H69.315C70.1457 27.9079 70.9689 28.0726 71.7334 28.3979C72.4978 28.7232 73.1872 29.2023 73.7586 29.8053C74.3301 30.4084 74.7714 31.1225 75.0552 31.9033C75.339 32.6841 75.4592 33.5149 75.4083 34.3442L73.2711 75.1361C73.0845 78.6704 70.0389 81.564 66.5025 81.564Z" fill="#DBDBDB"/>
<path d="M47.7558 67.3688L47.5531 71.0938C39.6672 71.0938 33.6063 64.6983 34.02 56.8145C34.2978 51.5302 37.4124 46.9131 41.8105 44.4453L43.5057 47.6714C41.8542 48.5874 40.4605 49.9054 39.4538 51.5033C38.4472 53.1012 37.8601 54.9273 37.7469 56.8125C37.4489 62.6422 41.9281 67.3688 47.7558 67.3688Z" fill="#DBDBDB"/>
<path opacity="0.6" d="M47.7558 67.3688L47.5531 71.0938C39.6672 71.0938 33.6063 64.6983 34.02 56.8145C34.2978 51.5302 37.4124 46.9131 41.8105 44.4453L43.5057 47.6714C41.8542 48.5874 40.4605 49.9054 39.4538 51.5033C38.4472 53.1012 37.8601 54.9273 37.7469 56.8125C37.4489 62.6422 41.9281 67.3688 47.7558 67.3688Z" fill="#7A7A7A"/>
<path d="M64.5682 57.1719C64.3129 61.2786 62.5131 65.1365 59.5302 67.9707C56.5474 70.805 52.6026 72.4055 48.4883 72.4508L48.6911 68.4643C54.9263 68.4643 60.2491 63.4072 60.5756 57.1719H64.5682Z" fill="#DBDBDB"/>
<path opacity="0.3" d="M64.5682 57.1719C64.3129 61.2786 62.5131 65.1365 59.5302 67.9707C56.5474 70.805 52.6026 72.4055 48.4883 72.4508L48.6911 68.4643C54.9263 68.4643 60.2491 63.4072 60.5756 57.1719H64.5682Z" fill="#7A7A7A"/>
<path d="M66.027 58.1763H61.5173C61.8864 51.1137 56.4642 45.4015 49.4097 45.4015C47.1367 45.4008 44.9023 45.9897 42.925 47.1109L40.875 43.2035C49.3367 38.4626 59.8424 41.3217 64.1574 49.5341C65.5451 52.1947 66.1909 55.1799 66.027 58.1763Z" fill="#F2F2F2"/>
<path d="M65.5345 69.4258H61.3817L60.9336 77.9788H65.0864L65.5345 69.4258Z" fill="#F2F2F2"/>
<path d="M71.4599 66.5996H67.3071L66.7109 77.9792H70.8637L71.4599 66.5996Z" fill="#DBDBDB"/>
<path opacity="0.6" d="M71.4599 66.5996H67.3071L66.7109 77.9792H70.8637L71.4599 66.5996Z" fill="#7A7A7A"/>
<path d="M77.0892 69.4258H72.9364L72.4883 77.9788H76.6411L77.0892 69.4258Z" fill="#DBDBDB"/>
<path opacity="0.3" d="M77.0892 69.4258H72.9364L72.4883 77.9788H76.6411L77.0892 69.4258Z" fill="#7A7A7A"/>
<path d="M76.6034 78.7064H60.8945L60.9047 78.5117H76.6135L76.6034 78.7064Z" fill="#7A7A7A"/>
<path opacity="0.8" d="M78.7248 42.5209H60.6172L61.1525 32.291H79.2622L78.7248 42.5209Z" fill="#F2F2F2"/>
<path d="M60.9436 36.2762L60.6172 42.5196H78.7248L79.1304 34.7676C76.1253 34.7676 74.3429 38.1884 70.6261 38.1884C66.9092 38.1884 65.8893 36.2762 60.9436 36.2762Z" fill="#DBDBDB"/>
<path opacity="0.1" d="M60.9436 36.2762L60.6172 42.5196H78.7248L79.1304 34.7676C76.1253 34.7676 74.3429 38.1884 70.6261 38.1884C66.9092 38.1884 65.8893 36.2762 60.9436 36.2762Z" fill="#7A7A7A"/>
<path d="M60.7872 39.2618C64.8569 39.2618 66.3189 37.0312 68.6041 37.0312C70.8894 37.0312 71.8891 39.3773 74.736 39.3773C77.7046 39.3773 78.9942 37.5321 78.9942 37.5321L78.7327 42.5244H60.625L60.7872 39.2618Z" fill="#DBDBDB"/>
<path opacity="0.5" d="M60.7872 39.2618C64.8569 39.2618 66.3189 37.0312 68.6041 37.0312C70.8894 37.0312 71.8891 39.3773 74.736 39.3773C77.7046 39.3773 78.9942 37.5321 78.9942 37.5321L78.7327 42.5244H60.625L60.7872 39.2618Z" fill="#7A7A7A"/>
</g>
</svg>
