<svg width="20" height="20" viewBox="0 0 20 20" fill="none" xmlns="http://www.w3.org/2000/svg">
<path d="M9.86091 6.90909L12.4545 9.49455V9.36364C12.4545 8.71265 12.1959 8.08833 11.7356 7.62801C11.2753 7.16769 10.651 6.90909 10 6.90909H9.86091ZM6.34273 7.56364L7.61091 8.83182C7.57 9.00364 7.54545 9.17545 7.54545 9.36364C7.54545 10.0146 7.80406 10.6389 8.26437 11.0993C8.72469 11.5596 9.34901 11.8182 10 11.8182C10.18 11.8182 10.36 11.7936 10.5318 11.7527L11.8 13.0209C11.2518 13.2909 10.6464 13.4545 10 13.4545C8.91502 13.4545 7.87448 13.0235 7.10729 12.2563C6.3401 11.4892 5.90909 10.4486 5.90909 9.36364C5.90909 8.71727 6.07273 8.11182 6.34273 7.56364ZM1.81818 3.03909L3.68364 4.90455L4.05182 5.27273C2.70182 6.33636 1.63818 7.72727 1 9.36364C2.41545 12.9555 5.90909 15.5 10 15.5C11.2682 15.5 12.4791 15.2545 13.5836 14.8127L13.9355 15.1564L16.3245 17.5455L17.3636 16.5064L2.85727 2M10 5.27273C11.085 5.27273 12.1255 5.70373 12.8927 6.47093C13.6599 7.23812 14.0909 8.27866 14.0909 9.36364C14.0909 9.88727 13.9845 10.3945 13.7964 10.8527L16.1936 13.25C17.4209 12.2273 18.4027 10.8855 19 9.36364C17.5845 5.77182 14.0909 3.22727 10 3.22727C8.85455 3.22727 7.75818 3.43182 6.72727 3.8L8.50273 5.55909C8.96909 5.37909 9.46818 5.27273 10 5.27273Z" fill="#474747"/>
</svg>
