<svg width="24" height="25" viewBox="0 0 24 25" fill="none" xmlns="http://www.w3.org/2000/svg">
<path d="M19.7966 16.3085C19.7225 16.2192 19.6498 16.1299 19.5783 16.0438C18.5962 14.8558 18.002 14.1388 18.002 10.7759C18.002 9.03482 17.5855 7.60625 16.7645 6.53482C16.1591 5.7433 15.3408 5.14286 14.2623 4.69911C14.2484 4.69139 14.236 4.68126 14.2256 4.6692C13.8377 3.37009 12.7761 2.5 11.5788 2.5C10.3814 2.5 9.32029 3.37009 8.93234 4.66786C8.92199 4.67948 8.90977 4.68928 8.89618 4.69688C6.37922 5.73304 5.156 7.72098 5.156 10.7746C5.156 14.1388 4.5627 14.8558 3.57966 16.0424C3.50823 16.1286 3.43547 16.2161 3.36136 16.3071C3.16993 16.538 3.04864 16.8189 3.01186 17.1165C2.97507 17.4141 3.02431 17.7161 3.15377 17.9866C3.42922 18.567 4.01627 18.9272 4.68636 18.9272H18.4761C19.1431 18.9272 19.7261 18.5674 20.0024 17.9897C20.1324 17.7191 20.1822 17.417 20.1457 17.119C20.1092 16.821 19.9881 16.5397 19.7966 16.3085ZM11.5788 22.5C12.2239 22.4995 12.8568 22.3244 13.4104 21.9932C13.9641 21.6621 14.4178 21.1873 14.7234 20.6192C14.7378 20.592 14.7449 20.5615 14.7441 20.5307C14.7432 20.4999 14.7344 20.4699 14.7185 20.4435C14.7026 20.4171 14.6801 20.3953 14.6533 20.3802C14.6265 20.365 14.5962 20.3571 14.5654 20.3571H8.59306C8.56222 20.357 8.53188 20.3649 8.50499 20.38C8.4781 20.3951 8.45559 20.4169 8.43963 20.4433C8.42367 20.4697 8.41482 20.4998 8.41393 20.5306C8.41305 20.5614 8.42016 20.5919 8.43457 20.6192C8.74017 21.1872 9.19379 21.662 9.74734 21.9931C10.3009 22.3242 10.9337 22.4994 11.5788 22.5Z" fill="#474747"/>
</svg>
