<svg width="57" height="56" viewBox="0 0 57 56" fill="none" xmlns="http://www.w3.org/2000/svg">
<g filter="url(#filter0_b_7552_45547)">
<rect x="0.667969" width="56" height="56" rx="28" fill="#E7EDFE"/>
</g>
<path d="M23.668 18H22.668C19.668 18 18.668 19.79 18.668 22V23V37C18.668 37.83 19.608 38.3 20.268 37.8L21.978 36.52C22.378 36.22 22.938 36.26 23.298 36.62L24.958 38.29C25.348 38.68 25.988 38.68 26.378 38.29L28.058 36.61C28.408 36.26 28.968 36.22 29.358 36.52L31.068 37.8C31.728 38.29 32.668 37.82 32.668 37V20C32.668 18.9 33.568 18 34.668 18H23.668ZM27.918 29.75H23.418C23.008 29.75 22.668 29.41 22.668 29C22.668 28.59 23.008 28.25 23.418 28.25H27.918C28.328 28.25 28.668 28.59 28.668 29C28.668 29.41 28.328 29.75 27.918 29.75ZM28.668 25.75H22.668C22.258 25.75 21.918 25.41 21.918 25C21.918 24.59 22.258 24.25 22.668 24.25H28.668C29.078 24.25 29.418 24.59 29.418 25C29.418 25.41 29.078 25.75 28.668 25.75Z" fill="#062983"/>
<path d="M34.678 18V19.5C35.338 19.5 35.968 19.77 36.428 20.22C36.908 20.71 37.168 21.34 37.168 22V24.42C37.168 25.16 36.838 25.5 36.088 25.5H34.168V20.01C34.168 19.73 34.398 19.5 34.678 19.5V18ZM34.678 18C33.568 18 32.668 18.9 32.668 20.01V27H36.088C37.668 27 38.668 26 38.668 24.42V22C38.668 20.9 38.218 19.9 37.498 19.17C36.768 18.45 35.778 18.01 34.678 18C34.688 18 34.678 18 34.678 18Z" fill="#062983"/>
<defs>
<filter id="filter0_b_7552_45547" x="-19.332" y="-20" width="96" height="96" filterUnits="userSpaceOnUse" color-interpolation-filters="sRGB">
<feFlood flood-opacity="0" result="BackgroundImageFix"/>
<feGaussianBlur in="BackgroundImageFix" stdDeviation="10"/>
<feComposite in2="SourceAlpha" operator="in" result="effect1_backgroundBlur_7552_45547"/>
<feBlend mode="normal" in="SourceGraphic" in2="effect1_backgroundBlur_7552_45547" result="shape"/>
</filter>
</defs>
</svg>
