<svg width="56" height="56" viewBox="0 0 56 56" fill="none" xmlns="http://www.w3.org/2000/svg">
<g filter="url(#filter0_b_6839_20362)">
<rect width="56" height="56" rx="28" fill="#E7EDFE"/>
</g>
<path fill-rule="evenodd" clip-rule="evenodd" d="M18.1056 29.6216C16.2992 28.121 16.8408 25.2195 19.0678 24.4712L31.5953 20.2603C33.9945 19.453 36.2533 21.798 35.3568 24.1653L30.6803 36.5271C29.8491 38.7245 26.9301 39.1564 25.4974 37.2957L22.8406 33.8455L28.6874 28.2138C28.8784 28.0298 28.9885 27.7774 28.9935 27.5123C28.9985 27.2471 28.8979 26.9908 28.7139 26.7998C28.5299 26.6088 28.2776 26.4987 28.0124 26.4937C27.7472 26.4887 27.491 26.5893 27.2999 26.7733L21.4539 32.4044L18.1063 29.621L18.1056 29.6216Z" fill="#062983"/>
<defs>
<filter id="filter0_b_6839_20362" x="-20" y="-20" width="96" height="96" filterUnits="userSpaceOnUse" color-interpolation-filters="sRGB">
<feFlood flood-opacity="0" result="BackgroundImageFix"/>
<feGaussianBlur in="BackgroundImageFix" stdDeviation="10"/>
<feComposite in2="SourceAlpha" operator="in" result="effect1_backgroundBlur_6839_20362"/>
<feBlend mode="normal" in="SourceGraphic" in2="effect1_backgroundBlur_6839_20362" result="shape"/>
</filter>
</defs>
</svg>
