<svg width="20" height="20" viewBox="0 0 20 20" fill="none" xmlns="http://www.w3.org/2000/svg">
<path d="M16.7513 7.68336C15.243 7.68336 14.6263 6.6167 15.3763 5.30836C15.8096 4.55003 15.5513 3.58336 14.793 3.15003L13.3513 2.32503C12.693 1.93336 11.843 2.1667 11.4513 2.82503L11.3596 2.98336C10.6096 4.2917 9.3763 4.2917 8.61797 2.98336L8.5263 2.82503C8.1513 2.1667 7.3013 1.93336 6.64297 2.32503L5.2013 3.15003C4.44297 3.58336 4.18464 4.55836 4.61797 5.3167C5.3763 6.6167 4.75964 7.68336 3.2513 7.68336C2.38464 7.68336 1.66797 8.3917 1.66797 9.2667V10.7334C1.66797 11.6 2.3763 12.3167 3.2513 12.3167C4.75964 12.3167 5.3763 13.3834 4.61797 14.6917C4.18464 15.45 4.44297 16.4167 5.2013 16.85L6.64297 17.675C7.3013 18.0667 8.1513 17.8334 8.54297 17.175L8.63464 17.0167C9.38464 15.7084 10.618 15.7084 11.3763 17.0167L11.468 17.175C11.8596 17.8334 12.7096 18.0667 13.368 17.675L14.8096 16.85C15.568 16.4167 15.8263 15.4417 15.393 14.6917C14.6346 13.3834 15.2513 12.3167 16.7596 12.3167C17.6263 12.3167 18.343 11.6084 18.343 10.7334V9.2667C18.3346 8.40003 17.6263 7.68336 16.7513 7.68336ZM10.0013 12.7084C8.50964 12.7084 7.29297 11.4917 7.29297 10C7.29297 8.50836 8.50964 7.2917 10.0013 7.2917C11.493 7.2917 12.7096 8.50836 12.7096 10C12.7096 11.4917 11.493 12.7084 10.0013 12.7084Z" fill="#5482F7"/>
</svg>
