<svg width="54" height="54" viewBox="0 0 54 54" fill="none" xmlns="http://www.w3.org/2000/svg">
<path d="M26.9982 4.44043C14.7631 4.44043 4.79297 14.4106 4.79297 26.6457C4.79297 38.8807 14.7631 48.8509 26.9982 48.8509C39.2333 48.8509 49.2034 38.8807 49.2034 26.6457C49.2034 14.4106 39.2333 4.44043 26.9982 4.44043ZM37.6123 21.5385L25.0219 34.1288C24.7111 34.4397 24.2892 34.6173 23.8451 34.6173C23.401 34.6173 22.9791 34.4397 22.6682 34.1288L16.3841 27.8447C15.7401 27.2008 15.7401 26.1349 16.3841 25.491C17.0281 24.847 18.0939 24.847 18.7379 25.491L23.8451 30.5982L35.2585 19.1847C35.9025 18.5408 36.9683 18.5408 37.6123 19.1847C38.2563 19.8287 38.2563 20.8723 37.6123 21.5385Z" fill="#059D02"/>
</svg>
