<svg width="296" height="295" viewBox="0 0 296 295" fill="none" xmlns="http://www.w3.org/2000/svg">
<circle cx="148" cy="147.5" r="147.5" fill="#F3FCF2"/>
<g style="mix-blend-mode:multiply">
<ellipse cx="148.409" cy="147.5" rx="116.941" ry="116.533" fill="#F3FCF2"/>
</g>
<g style="mix-blend-mode:multiply">
<circle cx="148.002" cy="147.5" r="95.3453" fill="#F3FCF2"/>
</g>
<path d="M148.001 79.8623C165.94 79.8623 183.144 86.9884 195.829 99.6731C208.513 112.358 215.64 129.562 215.64 147.5C215.64 165.439 208.513 182.643 195.829 195.328C183.144 208.012 165.94 215.139 148.001 215.139C130.063 215.139 112.859 208.012 100.174 195.328C87.4894 182.643 80.3633 165.439 80.3633 147.5C80.3633 129.562 87.4894 112.358 100.174 99.6731C112.859 86.9884 130.063 79.8623 148.001 79.8623ZM139.576 160.844L124.55 145.809C124.012 145.271 123.372 144.844 122.668 144.552C121.965 144.261 121.21 144.11 120.449 144.11C119.687 144.11 118.932 144.261 118.229 144.552C117.525 144.844 116.885 145.271 116.347 145.809C115.259 146.897 114.648 148.373 114.648 149.911C114.648 151.45 115.259 152.925 116.347 154.013L135.479 173.145C136.016 173.686 136.655 174.116 137.359 174.409C138.063 174.702 138.818 174.853 139.58 174.853C140.343 174.853 141.098 174.702 141.802 174.409C142.506 174.116 143.145 173.686 143.682 173.145L183.299 133.519C183.845 132.982 184.279 132.343 184.577 131.638C184.874 130.933 185.029 130.176 185.033 129.411C185.036 128.645 184.888 127.887 184.597 127.179C184.306 126.471 183.878 125.828 183.337 125.287C182.796 124.745 182.154 124.316 181.446 124.024C180.739 123.732 179.98 123.583 179.215 123.586C178.45 123.589 177.693 123.743 176.987 124.04C176.282 124.336 175.642 124.77 175.105 125.315L139.576 160.844Z" fill="#059D02"/>
</svg>
