<svg width="20" height="20" viewBox="0 0 20 20" fill="none" xmlns="http://www.w3.org/2000/svg">
<path d="M16.25 3.05817C16.25 3.04984 16.25 3.0415 16.2333 3.03317C16.05 2.79984 15.8083 2.67484 15.525 2.67484C15.0833 2.67484 14.55 2.9665 13.975 3.58317C13.2917 4.3165 12.2417 4.25817 11.6417 3.45817L10.8 2.3415C10.4667 1.8915 10.025 1.6665 9.58333 1.6665C9.14167 1.6665 8.7 1.8915 8.36667 2.3415L7.51667 3.4665C6.925 4.25817 5.88333 4.3165 5.2 3.5915L5.19167 3.58317C4.25 2.57484 3.40833 2.42484 2.93333 3.03317C2.91667 3.0415 2.91667 3.04984 2.91667 3.05817C2.61667 3.69984 2.5 4.59984 2.5 5.8665V14.1332C2.5 15.3998 2.61667 16.2998 2.91667 16.9415C2.91667 16.9498 2.925 16.9665 2.93333 16.9748C3.41667 17.5748 4.25 17.4248 5.19167 16.4165L5.2 16.4082C5.88333 15.6832 6.925 15.7415 7.51667 16.5332L8.36667 17.6582C8.7 18.1082 9.14167 18.3332 9.58333 18.3332C10.025 18.3332 10.4667 18.1082 10.8 17.6582L11.6417 16.5415C12.2417 15.7415 13.2917 15.6832 13.975 16.4165C14.55 17.0332 15.0833 17.3248 15.525 17.3248C15.8083 17.3248 16.05 17.2082 16.2333 16.9748C16.2417 16.9665 16.25 16.9498 16.25 16.9415C16.55 16.2998 16.6667 15.3998 16.6667 14.1332V5.8665C16.6667 4.59984 16.55 3.69984 16.25 3.05817ZM11.6667 12.0832H6.66667C6.325 12.0832 6.04167 11.7998 6.04167 11.4582C6.04167 11.1165 6.325 10.8332 6.66667 10.8332H11.6667C12.0083 10.8332 12.2917 11.1165 12.2917 11.4582C12.2917 11.7998 12.0083 12.0832 11.6667 12.0832ZM13.3333 9.1665H6.66667C6.325 9.1665 6.04167 8.88317 6.04167 8.5415C6.04167 8.19984 6.325 7.9165 6.66667 7.9165H13.3333C13.675 7.9165 13.9583 8.19984 13.9583 8.5415C13.9583 8.88317 13.675 9.1665 13.3333 9.1665Z" fill="#5482F7"/>
</svg>
